<?xml version="1.0" encoding="utf-8"?>
<!-- Generator: Adobe Illustrator 19.2.1, SVG Export Plug-In . SVG Version: 6.00 Build 0)  -->
<svg version="1.1" id="Layer_1" xmlns="http://www.w3.org/2000/svg" xmlns:xlink="http://www.w3.org/1999/xlink" x="0px" y="0px"
	 viewBox="0 0 151.4 106.1" style="enable-background:new 0 0 151.4 106.1;" xml:space="preserve">
<style type="text/css">
	.st0{fill:#FFFFFF;}
</style>
<g>
	<path class="st0" d="M6.6,64.2c-3.6,0-6.6-3-6.6-6.6v-51C0,3,3,0,6.8,0c3.6,0,6.6,3,6.6,6.6v50.9C13.4,61.1,10.4,64.2,6.6,64.2z"/>
	<path class="st0" d="M76.5,64.2c-2.8,0-5.5-1.7-6.5-4.4L67.5,53h-27l-2.6,6.8c-1,2.7-3.7,4.4-6.6,4.4c-4.3,0-7.1-3.6-7.1-7.2
		c0-0.9,0.1-1.7,0.5-2.6L43.1,7.1C44.7,2.8,49,0,53.4,0c4.8-0.4,9.6,2.5,11.4,7.1l18.3,47.4c0.3,0.9,0.5,1.7,0.5,2.6
		C83.6,60.5,80.8,64.2,76.5,64.2z"/>
	<path class="st0" d="M121.6,11.9h-13.1v45.5c0,3.7-3,6.8-6.8,6.8c-3.7,0-6.7-3.1-6.7-6.8V11.9H81.8c-3.2,0-5.9-2.7-5.9-6.1
		c0-3.1,2.6-5.8,5.9-5.8h39.8c3.1,0,5.8,2.7,5.8,6C127.3,9.3,124.7,11.9,121.6,11.9z"/>
	<path class="st0" d="M144.6,64.2c-3.6,0-6.6-3-6.6-6.6v-51c0-3.6,3-6.6,6.8-6.6c3.6,0,6.6,3,6.6,6.6v50.9
		C151.4,61.1,148.4,64.2,144.6,64.2z"/>
	<g>
		<path class="st0" d="M10.9,106.1c-4,0-9-1.3-10.5-3.6c-0.3-0.4-0.5-0.9-0.5-1.4c0-1.6,1.4-2.7,2.8-2.7c0.5,0,1.1,0.1,1.6,0.5
			c1.9,1.3,4.2,2.1,6.9,2.1c3.2,0,4.8-1.5,4.8-3.1C16,93,0.2,96.4,0.2,86c0-4.6,4-8.4,10.4-8.4c3.1,0,7.9,1,9.5,3.1
			c0.3,0.4,0.5,0.9,0.5,1.4c0,1.6-1.5,2.6-2.9,2.6c-0.5,0-1-0.1-1.5-0.4c-1.9-1.1-4-1.6-6.1-1.6c-2.5,0-3.9,1.1-3.9,2.8
			C6.2,89.9,22,87,22,97.3C22,102.3,18.4,106.1,10.9,106.1z"/>
		<path class="st0" d="M45.1,83.2h-5.7v19.7c0,1.6-1.3,2.9-3,2.9c-1.6,0-2.9-1.3-2.9-2.9V83.2h-5.7c-1.4,0-2.6-1.2-2.6-2.6
			s1.2-2.5,2.6-2.5h17.4c1.4,0,2.5,1.2,2.5,2.6C47.6,82.1,46.5,83.2,45.1,83.2z"/>
		<path class="st0" d="M64.8,106.1c-8.4,0-12.4-4.7-12.4-11.5V80.7c0-1.6,1.3-2.9,3-2.9c1.6,0,2.9,1.3,2.9,2.9v13.7
			c0,3.8,2.2,6.5,6.5,6.5s6.4-2.6,6.4-6.5V80.7c0-1.6,1.3-2.9,3.1-2.9c1.6,0,2.9,1.3,2.9,2.9v13.8C77.2,101.4,73.1,106.1,64.8,106.1
			z"/>
		<path class="st0" d="M92.8,105.6h-7.6c-1.8,0-3.3-1.5-3.3-3.3V81.4c0-1.8,1.5-3.3,3.3-3.3h7.6c8.6,0,14.6,5.5,14.6,13.8
			C107.4,100.1,101.4,105.6,92.8,105.6z M92.8,83.2h-5v17.2h5c5.5,0,8.6-3.9,8.6-8.6C101.4,87,98.4,83.2,92.8,83.2z"/>
		<path class="st0" d="M115,105.9c-1.6,0-2.9-1.3-2.9-2.9V80.7c0-1.6,1.3-2.9,3-2.9c1.6,0,2.9,1.3,2.9,2.9V103
			C117.9,104.6,116.6,105.9,115,105.9z"/>
		<path class="st0" d="M137,106.1c-8.3,0-14.4-5.9-14.4-14.2s6.1-14.2,14.4-14.2s14.4,5.9,14.4,14.2
			C151.4,100.1,145.4,106.1,137,106.1z M137,82.8c-5.1,0-8.3,3.9-8.3,9s3.3,9,8.3,9c5.1,0,8.4-3.9,8.4-9
			C145.4,86.7,142.1,82.8,137,82.8z"/>
	</g>
</g>
</svg>
